<svg id="Layer_1" data-name="Layer 1" xmlns="http://www.w3.org/2000/svg" xmlns:xlink="http://www.w3.org/1999/xlink" viewBox="0 0 395.43 115.08"><defs><style>.cls-1{fill:#fff;}.cls-2{fill:url(#linear-gradient);}</style><linearGradient id="linear-gradient" x1="-269.59" y1="264.02" x2="-239.46" y2="264.02" gradientTransform="translate(329.77 -217.02)" gradientUnits="userSpaceOnUse"><stop offset="0.08" stop-color="#fff"/><stop offset="0.15" stop-color="#e1e1e1"/><stop offset="0.28" stop-color="#a6a6a6"/><stop offset="0.41" stop-color="#747474"/><stop offset="0.54" stop-color="#4a4a4a"/><stop offset="0.67" stop-color="#2a2a2a"/><stop offset="0.79" stop-color="#131313"/><stop offset="0.9" stop-color="#050505"/><stop offset="1"/></linearGradient></defs><path class="cls-1" d="M309.42,27.16V32c-3.2-3.2-7.24-5.89-16.32-6.06-15.32-.28-28.16,12.28-28.26,29.61-.1,16.31,12.45,29.6,28.26,29.44,9.08-.1,12.95-2.7,16.32-6.06l.06,4.61h15.26l0-56.42ZM295,70.9c-8.75.16-14.8-6.74-15-15.31a14.82,14.82,0,0,1,15-15.48c8.24,0,15.31,5.88,15.31,15.31,0,9.25-6.39,15.3-15.31,15.48Z"/><polygon class="cls-1" points="2.04 83.55 47.75 83.53 47.75 68.13 18.86 68.11 18.89 2.94 2.04 2.94 2.04 83.55 2.04 83.55"/><path class="cls-1" d="M84.62,29.2V25.3C84.62,9.24,92.88.06,108.14.06h6.43v14h-3.44c-8.61,0-11.37,4.7-11.48,11.13l0,1.85h15V42.35h-15V83.44H84.58V40.9"/><polygon class="cls-1" points="247.81 27.06 264.99 27.06 245.03 83.52 231.49 83.52 219.89 46.89 208.64 83.52 195.1 83.52 174.55 27.06 191.72 27.06 202.36 61.52 213.12 27.06 226.42 27.06 237.18 61.52 247.81 27.06 247.81 27.06"/><polygon class="cls-1" points="339.59 110.06 353.92 78.36 331.8 27.11 348.52 27.11 362.41 59.19 376.71 27.06 393.7 27.1 356.69 110.06 339.59 110.06 339.59 110.06"/><path class="cls-1" d="M174.51,61c.1-1.49.21-3,.21-4.24C174.72,40.7,166,26,147.09,26c-16.51,0-28,13.34-28,29.53v.21c0,17.36,12.6,29.33,29.64,29.33,9.9,0,17.34-3.76,22.6-9.91l-8.73-8.74c-4.41,4.06-8.3,5.73-13.66,5.73-7.2,0-12.28-3.81-13.87-11.11ZM159.05,51H134.81c1.27-7.3,5.61-12.07,12.28-12.07s11,4.87,12,12.07Z"/><polygon class="cls-1" points="73.59 20.47 58.39 20.47 58.39 5.27 73.59 5.27 73.59 20.47 73.59 20.47"/><path class="cls-1" d="M58.6,42.45V83.58H74V42.45H58.6"/><polyline class="cls-1" points="43.8 42.44 74.04 42.45 58.49 26.92 43.8 26.92 43.8 42.44"/><rect class="cls-2" x="61.76" y="39.29" width="9.12" height="15.43" transform="translate(19.31 113.33) rotate(-90)"/></svg>